<mxfile host="Electron" modified="2025-03-06T08:32:02.937Z" agent="Mozilla/5.0 (Windows NT 10.0; Win64; x64) AppleWebKit/537.36 (KHTML, like Gecko) draw.io/24.2.5 Chrome/120.0.6099.109 Electron/28.1.0 Safari/537.36" etag="xAnispWd7Sw2DBFe_mdi" version="24.2.5" type="device">
  <diagram id="C5RBs43oDa-KdzZeNtuy" name="Page-1">
    <mxGraphModel dx="2389" dy="917" grid="1" gridSize="10" guides="1" tooltips="1" connect="1" arrows="1" fold="1" page="1" pageScale="1" pageWidth="827" pageHeight="1169" math="0" shadow="0">
      <root>
        <mxCell id="WIyWlLk6GJQsqaUBKTNV-0" />
        <mxCell id="WIyWlLk6GJQsqaUBKTNV-1" parent="WIyWlLk6GJQsqaUBKTNV-0" />
        <mxCell id="z-b9FHIYsPkiG0rdLw4F-25" value="" style="rounded=0;whiteSpace=wrap;html=1;" vertex="1" parent="WIyWlLk6GJQsqaUBKTNV-1">
          <mxGeometry x="-530" y="100" width="1500" height="50" as="geometry" />
        </mxCell>
        <mxCell id="z-b9FHIYsPkiG0rdLw4F-26" value="&lt;font style=&quot;font-size: 14px;&quot;&gt;Buffer 0 (param.dtype, grad.dtype)&lt;/font&gt;" style="text;html=1;align=center;verticalAlign=middle;whiteSpace=wrap;rounded=0;fillColor=#e1d5e7;strokeColor=#9673a6;" vertex="1" parent="WIyWlLk6GJQsqaUBKTNV-1">
          <mxGeometry x="-530" y="60" width="230" height="30" as="geometry" />
        </mxCell>
        <mxCell id="z-b9FHIYsPkiG0rdLw4F-27" value="" style="rounded=0;whiteSpace=wrap;html=1;fillColor=#fff2cc;strokeColor=#d6b656;shadow=0;opacity=70;" vertex="1" parent="WIyWlLk6GJQsqaUBKTNV-1">
          <mxGeometry x="-530" y="100" width="330" height="50" as="geometry" />
        </mxCell>
        <mxCell id="z-b9FHIYsPkiG0rdLw4F-28" value="" style="rounded=0;whiteSpace=wrap;html=1;fillColor=#d5e8d4;strokeColor=#82b366;" vertex="1" parent="WIyWlLk6GJQsqaUBKTNV-1">
          <mxGeometry x="-200" y="100" width="330" height="50" as="geometry" />
        </mxCell>
        <mxCell id="z-b9FHIYsPkiG0rdLw4F-29" value="" style="rounded=0;whiteSpace=wrap;html=1;fillColor=#fff2cc;strokeColor=#d6b656;" vertex="1" parent="WIyWlLk6GJQsqaUBKTNV-1">
          <mxGeometry x="130" y="100" width="330" height="50" as="geometry" />
        </mxCell>
        <mxCell id="z-b9FHIYsPkiG0rdLw4F-30" value="" style="rounded=0;whiteSpace=wrap;html=1;fillColor=#d5e8d4;strokeColor=#82b366;" vertex="1" parent="WIyWlLk6GJQsqaUBKTNV-1">
          <mxGeometry x="460" y="100" width="330" height="50" as="geometry" />
        </mxCell>
        <mxCell id="z-b9FHIYsPkiG0rdLw4F-31" value="" style="rounded=0;whiteSpace=wrap;html=1;fillColor=#fff2cc;strokeColor=#d6b656;" vertex="1" parent="WIyWlLk6GJQsqaUBKTNV-1">
          <mxGeometry x="790" y="100" width="180" height="50" as="geometry" />
        </mxCell>
        <mxCell id="z-b9FHIYsPkiG0rdLw4F-32" value="Grad0" style="rounded=0;whiteSpace=wrap;html=1;shadow=0;opacity=70;" vertex="1" parent="WIyWlLk6GJQsqaUBKTNV-1">
          <mxGeometry x="-530" y="100" width="50" height="50" as="geometry" />
        </mxCell>
        <mxCell id="z-b9FHIYsPkiG0rdLw4F-33" value="Grad1" style="rounded=0;whiteSpace=wrap;html=1;shadow=0;opacity=70;" vertex="1" parent="WIyWlLk6GJQsqaUBKTNV-1">
          <mxGeometry x="-480" y="100" width="50" height="50" as="geometry" />
        </mxCell>
        <mxCell id="z-b9FHIYsPkiG0rdLw4F-34" value="Grad2" style="rounded=0;whiteSpace=wrap;html=1;shadow=0;opacity=70;" vertex="1" parent="WIyWlLk6GJQsqaUBKTNV-1">
          <mxGeometry x="-430" y="100" width="50" height="50" as="geometry" />
        </mxCell>
        <mxCell id="z-b9FHIYsPkiG0rdLw4F-35" value="Grad3" style="rounded=0;whiteSpace=wrap;html=1;shadow=0;opacity=70;" vertex="1" parent="WIyWlLk6GJQsqaUBKTNV-1">
          <mxGeometry x="-380" y="100" width="50" height="50" as="geometry" />
        </mxCell>
        <mxCell id="z-b9FHIYsPkiG0rdLw4F-36" value="Grad4" style="rounded=0;whiteSpace=wrap;html=1;shadow=0;opacity=70;" vertex="1" parent="WIyWlLk6GJQsqaUBKTNV-1">
          <mxGeometry x="-330" y="100" width="50" height="50" as="geometry" />
        </mxCell>
        <mxCell id="z-b9FHIYsPkiG0rdLw4F-37" value="Grad5" style="rounded=0;whiteSpace=wrap;html=1;shadow=0;opacity=70;" vertex="1" parent="WIyWlLk6GJQsqaUBKTNV-1">
          <mxGeometry x="-280" y="100" width="50" height="50" as="geometry" />
        </mxCell>
        <mxCell id="z-b9FHIYsPkiG0rdLw4F-38" value="Grad..." style="rounded=0;whiteSpace=wrap;html=1;shadow=0;opacity=70;" vertex="1" parent="WIyWlLk6GJQsqaUBKTNV-1">
          <mxGeometry x="-230" y="100" width="70" height="50" as="geometry" />
        </mxCell>
        <mxCell id="z-b9FHIYsPkiG0rdLw4F-39" value="Shard0" style="rounded=0;whiteSpace=wrap;html=1;fillColor=#d5e8d4;strokeColor=#82b366;" vertex="1" parent="WIyWlLk6GJQsqaUBKTNV-1">
          <mxGeometry x="461" y="100" width="80" height="50" as="geometry" />
        </mxCell>
        <mxCell id="z-b9FHIYsPkiG0rdLw4F-40" value="Shard1" style="rounded=0;whiteSpace=wrap;html=1;fillColor=#d5e8d4;strokeColor=#82b366;" vertex="1" parent="WIyWlLk6GJQsqaUBKTNV-1">
          <mxGeometry x="541" y="100" width="89" height="50" as="geometry" />
        </mxCell>
        <mxCell id="z-b9FHIYsPkiG0rdLw4F-41" value="Shard2" style="rounded=0;whiteSpace=wrap;html=1;fillColor=#d5e8d4;strokeColor=#82b366;" vertex="1" parent="WIyWlLk6GJQsqaUBKTNV-1">
          <mxGeometry x="630" y="100" width="80" height="50" as="geometry" />
        </mxCell>
        <mxCell id="z-b9FHIYsPkiG0rdLw4F-42" value="Shard3" style="rounded=0;whiteSpace=wrap;html=1;fillColor=#d5e8d4;strokeColor=#82b366;" vertex="1" parent="WIyWlLk6GJQsqaUBKTNV-1">
          <mxGeometry x="710" y="100" width="80" height="50" as="geometry" />
        </mxCell>
        <mxCell id="z-b9FHIYsPkiG0rdLw4F-43" value="Bucket0" style="rounded=0;whiteSpace=wrap;html=1;" vertex="1" parent="WIyWlLk6GJQsqaUBKTNV-1">
          <mxGeometry x="-440" y="180" width="80" height="30" as="geometry" />
        </mxCell>
        <mxCell id="z-b9FHIYsPkiG0rdLw4F-44" value="Bucket2" style="rounded=0;whiteSpace=wrap;html=1;" vertex="1" parent="WIyWlLk6GJQsqaUBKTNV-1">
          <mxGeometry x="240" y="180" width="80" height="30" as="geometry" />
        </mxCell>
        <mxCell id="z-b9FHIYsPkiG0rdLw4F-45" value="Bucket3" style="rounded=0;whiteSpace=wrap;html=1;" vertex="1" parent="WIyWlLk6GJQsqaUBKTNV-1">
          <mxGeometry x="590" y="180" width="80" height="30" as="geometry" />
        </mxCell>
        <mxCell id="z-b9FHIYsPkiG0rdLw4F-46" value="Bucket4" style="rounded=0;whiteSpace=wrap;html=1;" vertex="1" parent="WIyWlLk6GJQsqaUBKTNV-1">
          <mxGeometry x="840" y="180" width="80" height="30" as="geometry" />
        </mxCell>
        <mxCell id="z-b9FHIYsPkiG0rdLw4F-47" value="Bucket1" style="rounded=0;whiteSpace=wrap;html=1;" vertex="1" parent="WIyWlLk6GJQsqaUBKTNV-1">
          <mxGeometry x="-60" y="180" width="80" height="30" as="geometry" />
        </mxCell>
        <mxCell id="z-b9FHIYsPkiG0rdLw4F-48" value="" style="strokeWidth=2;html=1;shape=mxgraph.flowchart.annotation_2;align=left;labelPosition=right;pointerEvents=1;rotation=90;" vertex="1" parent="WIyWlLk6GJQsqaUBKTNV-1">
          <mxGeometry x="605" y="-70" width="50" height="270" as="geometry" />
        </mxCell>
        <mxCell id="z-b9FHIYsPkiG0rdLw4F-49" value="Shard By DP Size" style="rounded=0;whiteSpace=wrap;html=1;" vertex="1" parent="WIyWlLk6GJQsqaUBKTNV-1">
          <mxGeometry x="580" y="10" width="100" height="30" as="geometry" />
        </mxCell>
      </root>
    </mxGraphModel>
  </diagram>
</mxfile>
